<?xml version="1.0" encoding="UTF-8"?>
<svg xmlns="http://www.w3.org/2000/svg" xmlns:xlink="http://www.w3.org/1999/xlink" viewBox="0 0 256 256" width="256px" height="256px">
<g id="surface8366325">
<path style=" stroke:none;fill-rule:nonzero;fill:rgb(100%,100%,100%);fill-opacity:1;" d="M 36 40 C 27.164062 40 20 47.164062 20 56 L 20 192 C 20 200.835938 27.164062 208 36 208 L 143.15625 208 L 140 248 L 187.460938 208 L 220 208 C 228.835938 208 236 200.835938 236 192 L 236 56 C 236 47.164062 228.835938 40 220 40 Z M 128 68 C 136.835938 68 144 75.164062 144 84 C 144 92.835938 136.835938 100 128 100 C 119.164062 100 112 92.835938 112 84 C 112 75.164062 119.164062 68 128 68 Z M 124 116 L 140 116 L 140 172 L 116 172 L 116 124 Z M 124 116 "/>
</g>
</svg>
