<?xml version="1.0" encoding="UTF-8"?>
<svg xmlns="http://www.w3.org/2000/svg" xmlns:xlink="http://www.w3.org/1999/xlink" viewBox="0 0 240 240" width="240px" height="240px">
<g id="surface8457175">
<path style=" stroke:none;fill-rule:nonzero;fill:rgb(100%,100%,100%);fill-opacity:1;" d="M 192 16 L 32 16 L 32 224 L 192 224 C 200.839844 224 208 216.839844 208 208 L 208 32 C 208 23.160156 200.839844 16 192 16 Z M 72 168 C 72 137.664062 104 146.335938 108 133.335938 L 108 124.671875 C 106.199219 123.703125 101.054688 117.0625 100.511719 111.878906 C 99.097656 111.761719 96.871094 110.351562 96.214844 104.792969 C 95.863281 101.808594 97.265625 100.128906 98.113281 99.601562 C 98.113281 99.601562 96 94.785156 96 90.007812 C 96 75.792969 103.03125 64 120 64 C 129.160156 64 132 70.496094 132 70.496094 C 140.183594 70.496094 144 79.472656 144 90 C 144 95.246094 141.886719 99.59375 141.886719 99.59375 C 142.734375 100.121094 144.136719 101.800781 143.785156 104.785156 C 143.128906 110.34375 140.902344 111.753906 139.488281 111.871094 C 138.945312 117.054688 133.800781 123.695312 132 124.664062 L 132 133.328125 C 136 146.335938 168 137.664062 168 168 Z M 72 168 "/>
</g>
</svg>
