<?xml version="1.0" encoding="UTF-8"?>
<svg xmlns="http://www.w3.org/2000/svg" xmlns:xlink="http://www.w3.org/1999/xlink" viewBox="0 0 240 240" width="240px" height="240px">
<g id="surface8032379">
<path style=" stroke:none;fill-rule:nonzero;fill:rgb(100%,100%,100%);fill-opacity:1;" d="M 120 24 C 66.984375 24 24 66.984375 24 120 C 24 173.015625 66.984375 216 120 216 C 173.015625 216 216 173.015625 216 120 C 216 66.984375 173.015625 24 120 24 Z M 83.96875 67.222656 C 90.703125 67.222656 95.191406 71.710938 95.191406 77.695312 C 95.191406 83.679688 90.703125 88.167969 83.222656 88.167969 C 76.488281 88.175781 72 83.679688 72 77.695312 C 72 71.710938 76.488281 67.222656 83.96875 67.222656 Z M 96 160 L 72 160 L 72 96 L 96 96 Z M 176 160 L 153.40625 160 L 153.40625 125.023438 C 153.40625 115.351562 147.382812 113.121094 145.128906 113.121094 C 142.871094 113.121094 135.335938 114.609375 135.335938 125.023438 C 135.335938 126.511719 135.335938 160 135.335938 160 L 112 160 L 112 96 L 135.34375 96 L 135.34375 104.929688 C 138.351562 99.71875 144.375 96 155.671875 96 C 166.96875 96 176 104.929688 176 125.023438 Z M 176 160 "/>
</g>
</svg>
