<?xml version="1.0" encoding="UTF-8"?>
<svg xmlns="http://www.w3.org/2000/svg" xmlns:xlink="http://www.w3.org/1999/xlink" viewBox="0 0 240 240" width="240px" height="240px">
<g id="surface8457886">
<path style=" stroke:none;fill-rule:nonzero;fill:rgb(100%,100%,100%);fill-opacity:1;" d="M 192 32 L 48 32 C 39.160156 32 32 39.160156 32 48 L 32 192 C 32 200.839844 39.160156 208 48 208 L 192 208 C 200.839844 208 208 200.839844 208 192 L 208 48 C 208 39.160156 200.839844 32 192 32 Z M 136 184 L 64 184 C 59.585938 184 56 180.414062 56 176 C 56 171.585938 59.585938 168 64 168 L 136 168 C 140.414062 168 144 171.585938 144 176 C 144 180.414062 140.414062 184 136 184 Z M 176 152 L 64 152 C 59.585938 152 56 148.414062 56 144 C 56 139.585938 59.585938 136 64 136 L 176 136 C 180.414062 136 184 139.585938 184 144 C 184 148.414062 180.414062 152 176 152 Z M 84 106.480469 C 84 106.480469 56 88 56 72 C 56 63.160156 63.160156 56 72 56 C 76.808594 56 81.0625 58.160156 84 61.519531 C 86.9375 58.160156 91.191406 56 96 56 C 104.839844 56 112 63.160156 112 72 C 112 88 84 106.480469 84 106.480469 Z M 84 106.480469 "/>
</g>
</svg>
