<?xml version="1.0" encoding="UTF-8"?>
<svg xmlns="http://www.w3.org/2000/svg" xmlns:xlink="http://www.w3.org/1999/xlink" viewBox="0 0 256 256" width="256px" height="256px">
<g id="surface8411041">
<path style=" stroke:none;fill-rule:nonzero;fill:rgb(100%,100%,100%);fill-opacity:1;" d="M 113.164062 24 L 105.625 47.039062 C 94.222656 50.183594 83.792969 55.664062 74.882812 62.945312 L 80.234375 51.3125 L 70.828125 46.195312 C 67.710938 44.503906 63.855469 45.0625 61.351562 47.570312 L 43.96875 64.945312 L 54.953125 86.617188 C 49.332031 96.515625 45.621094 107.640625 44.429688 119.523438 L 40 107.546875 L 29.734375 110.585938 C 26.335938 111.589844 24 114.714844 24 118.257812 L 24 142.835938 L 47.039062 150.375 C 50.183594 161.777344 55.664062 172.207031 62.945312 181.117188 L 51.3125 175.765625 L 46.195312 185.171875 C 44.503906 188.289062 45.0625 192.144531 47.570312 194.648438 L 64.945312 212.03125 L 86.617188 201.046875 C 96.515625 206.667969 107.640625 210.378906 119.523438 211.570312 L 107.546875 216 L 110.585938 226.265625 C 111.589844 229.664062 114.714844 232 118.257812 232 L 142.835938 232 L 150.375 208.960938 C 161.777344 205.816406 172.207031 200.335938 181.117188 193.054688 L 175.765625 204.6875 L 185.171875 209.804688 C 188.289062 211.496094 192.144531 210.9375 194.648438 208.429688 L 212.03125 191.054688 L 201.046875 169.382812 C 206.667969 159.484375 210.378906 148.359375 211.570312 136.476562 L 216 148.453125 L 226.265625 145.414062 C 229.664062 144.410156 232 141.285156 232 137.742188 L 232 113.164062 L 208.960938 105.625 C 205.816406 94.222656 200.335938 83.792969 193.054688 74.882812 L 204.6875 80.234375 L 209.804688 70.828125 C 211.496094 67.710938 210.9375 63.855469 208.429688 61.351562 L 191.054688 43.96875 L 169.382812 54.953125 C 159.484375 49.332031 148.359375 45.621094 136.476562 44.429688 L 148.453125 40 L 145.414062 29.734375 C 144.410156 26.335938 141.285156 24 137.742188 24 Z M 128 64 C 163.347656 64 192 92.652344 192 128 C 192 163.34375 163.347656 192 128 192 C 92.652344 192 64 163.34375 64 128 C 64 92.652344 92.652344 64 128 64 Z M 128 80 C 101.492188 80 80 101.492188 80 128 C 80 154.507812 101.492188 176 128 176 C 154.507812 176 176 154.507812 176 128 C 176 101.492188 154.507812 80 128 80 Z M 128 112 C 136.835938 112 144 119.164062 144 128 C 144 136.835938 136.835938 144 128 144 C 119.164062 144 112 136.835938 112 128 C 112 119.164062 119.164062 112 128 112 Z M 128 112 "/>
</g>
</svg>
